# xmcd
#
# Track frame offsets:
# 150
# 21560
# 48101
# 80736
# 109152
# 154302
# 187771
# 206561
# 230899
# 259699
# 295561
# 321196
#
# Disc length: 4673 seconds
#
# Revision: 0
# Processed by: cddbd v1.4PL0 Copyright (c) Steve Scherf et al.
# Submitted via: Audion 3.0.2 (http://www.panic.com/audion/)
#
DISCID=a6123f0c
DTITLE=sean dimitrie productions - nov dec 2003
DYEAR=1900
DGENRE=
TTITLE0=funke 
TTITLE1=so hot 
TTITLE2=dr doo me right tight body mix
TTITLE3=ditto hip house mix
TTITLE4=meditation
TTITLE5=beatiful
TTITLE6=no time org
TTITLE7=no time dub
TTITLE8=addicted
TTITLE9=afrikahn vibes
TTITLE10=if i had my way
TTITLE11=wunder dub
EXTD=
EXTT0=
EXTT1=
EXTT2=
EXTT3=
EXTT4=
EXTT5=
EXTT6=
EXTT7=
EXTT8=
EXTT9=
EXTT10=
EXTT11=
PLAYORDER=
